<?xml version="1.0" standalone="no"?>
<!DOCTYPE svg PUBLIC "-//W3C//DTD SVG 20010904//EN"
 "http://www.w3.org/TR/2001/REC-SVG-20010904/DTD/svg10.dtd">
<svg version="1.0" xmlns="http://www.w3.org/2000/svg"
 width="512.000000pt" height="512.000000pt" viewBox="0 0 512.000000 512.000000"
 preserveAspectRatio="xMidYMid meet">

<g transform="translate(0.000000,512.000000) scale(0.100000,-0.100000)"
fill="#f6f6f8" stroke="none">
<path d="M2735 4426 c-69 -17 -110 -41 -159 -90 -84 -83 -67 -1 -353 -1716
-285 -1703 -275 -1632 -228 -1736 47 -106 155 -185 272 -199 148 -19 311 85
359 228 7 23 131 746 274 1607 281 1687 272 1613 225 1716 -65 147 -236 230
-390 190z"/>
<path d="M1307 3920 c-69 -12 -132 -46 -185 -100 -26 -25 -254 -272 -507 -548
-325 -355 -469 -518 -490 -559 -27 -51 -30 -65 -30 -153 0 -88 3 -102 30 -153
21 -41 163 -203 492 -561 573 -623 532 -582 609 -618 59 -27 71 -30 152 -26
67 2 98 9 137 28 173 85 243 309 147 473 -15 25 -195 228 -400 451 l-372 406
322 353 c178 194 351 383 385 421 78 85 106 152 105 251 0 39 -7 89 -16 113
-57 156 -216 249 -379 222z"/>
<path d="M3637 3905 c-103 -38 -184 -131 -213 -245 -14 -55 -15 -75 -5 -131 7
-36 24 -86 39 -111 15 -26 195 -229 400 -452 l372 -406 -367 -401 c-203 -220
-380 -419 -396 -441 -35 -53 -51 -109 -51 -183 1 -109 50 -208 134 -270 66
-48 122 -67 205 -67 76 0 134 17 191 55 19 14 258 267 530 563 362 395 501
554 522 594 24 48 27 66 27 150 0 84 -3 102 -27 150 -21 40 -158 197 -519 590
-271 294 -508 547 -528 561 -60 43 -114 59 -199 58 -42 0 -94 -7 -115 -14z"/>
</g>
</svg>
