<?xml version="1.0" standalone="no"?>
<!DOCTYPE svg PUBLIC "-//W3C//DTD SVG 20010904//EN"
 "http://www.w3.org/TR/2001/REC-SVG-20010904/DTD/svg10.dtd">
<svg version="1.0" xmlns="http://www.w3.org/2000/svg"
 width="512.000000pt" height="512.000000pt" viewBox="0 0 512.000000 512.000000"
 preserveAspectRatio="xMidYMid meet">

<g transform="translate(0.000000,512.000000) scale(0.100000,-0.100000)"
fill="#1b1d20" stroke="none">
<path d="M1020 4916 c-90 -24 -163 -87 -204 -175 -20 -45 -21 -61 -24 -636
l-3 -590 -52 -24 c-95 -45 -197 -165 -241 -286 -7 -21 -12 -372 -16 -1155 l-5
-1125 -70 -6 c-84 -7 -111 -18 -159 -60 -73 -63 -97 -148 -77 -265 31 -173
148 -312 319 -377 l57 -22 2015 0 2015 0 57 22 c171 65 288 204 319 377 20
117 -4 202 -77 265 -48 42 -75 53 -159 60 l-70 6 -5 1125 c-4 783 -9 1134 -16
1155 -44 121 -146 241 -241 286 l-52 24 -3 590 c-3 578 -3 591 -24 636 -31 67
-87 124 -152 156 l-57 28 -1515 2 c-1176 1 -1525 -1 -1560 -11z m3101 -109
c24 -13 58 -43 74 -66 l30 -43 3 -304 3 -304 -1671 0 -1671 0 3 304 3 304 30
43 c17 23 50 53 74 66 l44 23 1517 0 1517 0 44 -23z m107 -2006 l-3 -1189 -30
-43 c-16 -23 -50 -53 -74 -66 l-44 -23 -1517 0 -1517 0 -44 23 c-24 13 -57 43
-74 66 l-30 43 -3 1189 -2 1189 1670 0 1670 0 -2 -1189z m-3405 -1243 c32 -65
89 -121 156 -152 l46 -21 1535 0 1535 0 57 28 c65 32 121 89 152 156 21 46 21
53 26 944 l5 898 47 -31 c58 -39 100 -90 136 -167 l27 -58 3 -1117 2 -1118
-1990 0 -1990 0 2 1118 3 1117 27 58 c36 77 78 128 136 167 l47 31 5 -898 5
-898 28 -57z m1119 -828 c22 -119 33 -145 72 -173 l31 -22 515 0 515 0 31 22
c39 28 50 54 72 173 l18 95 768 3 c741 2 769 1 812 -17 68 -30 86 -68 81 -167
-2 -63 -9 -94 -31 -138 -36 -73 -109 -146 -183 -183 l-58 -28 -2025 0 -2025 0
-59 29 c-75 38 -146 109 -182 182 -22 44 -29 75 -31 138 -5 98 13 136 80 166
40 19 71 20 812 17 l769 -2 18 -95z m1158 96 c0 -25 -34 -174 -42 -183 -15
-19 -981 -19 -996 0 -8 9 -42 158 -42 183 0 2 243 4 540 4 297 0 540 -2 540
-4z"/>
<path d="M2718 4650 c-82 -25 -148 -110 -148 -189 1 -74 70 -170 138 -188 15
-5 279 -8 588 -8 l561 0 48 30 c129 80 125 267 -8 337 l-42 23 -555 2 c-305 1
-567 -2 -582 -7z m1154 -119 c27 -24 33 -36 33 -71 0 -35 -6 -47 -33 -71 l-32
-29 -556 0 -556 0 -29 29 c-23 23 -29 38 -29 71 0 33 6 48 29 71 l29 29 556 0
556 0 32 -29z"/>
<path d="M1201 4598 c-58 -39 -76 -72 -76 -138 0 -90 53 -149 143 -158 92 -8
162 51 170 143 8 101 -47 166 -147 173 -46 3 -62 0 -90 -20z m123 -89 c17 -13
26 -30 26 -49 0 -31 -39 -70 -70 -70 -57 0 -86 85 -41 122 30 23 52 23 85 -3z"/>
<path d="M1671 4598 c-78 -53 -100 -130 -59 -207 30 -58 65 -83 126 -89 163
-15 243 195 110 289 -48 35 -133 38 -177 7z m127 -88 c31 -29 29 -73 -5 -100
-48 -38 -103 -8 -103 56 0 58 65 84 108 44z"/>
<path d="M2139 4597 c-48 -31 -83 -105 -74 -156 15 -90 84 -145 172 -138 157
11 205 215 71 297 -46 28 -125 27 -169 -3z m131 -87 c20 -20 26 -65 12 -86
-13 -20 -52 -35 -72 -29 -73 23 -61 135 15 135 14 0 34 -9 45 -20z"/>
<path d="M1818 3803 c-8 -10 -90 -206 -182 -436 -130 -328 -164 -422 -156
-436 19 -36 61 -36 80 -1 5 10 84 203 175 430 160 396 166 413 150 436 -18 28
-46 31 -67 7z"/>
<path d="M2969 3621 c-38 -38 -39 -40 -39 -110 0 -84 -7 -88 -66 -30 -46 45
-97 62 -147 48 -47 -13 -302 -272 -312 -316 -9 -47 9 -93 55 -138 58 -56 53
-65 -31 -65 -70 0 -72 -1 -110 -39 l-39 -39 0 -204 c0 -193 1 -207 21 -232 31
-40 71 -56 139 -56 73 0 76 -10 20 -65 -50 -49 -67 -98 -51 -147 7 -23 58 -80
149 -171 l139 -137 47 0 c56 0 89 16 135 64 19 19 38 33 43 30 4 -3 8 -36 8
-73 0 -76 17 -109 70 -136 45 -24 382 -21 430 3 46 22 70 72 70 143 0 31 3 59
7 62 3 4 30 -16 59 -43 48 -45 57 -50 99 -50 25 0 58 6 73 14 29 16 239 225
266 266 20 30 21 92 2 128 -8 15 -30 42 -50 61 -19 19 -33 38 -30 43 3 4 31 8
62 8 72 0 121 24 144 70 15 29 18 64 18 213 0 200 -8 234 -62 267 -24 14 -50
20 -95 20 -34 0 -64 4 -67 8 -3 5 11 24 30 43 46 44 64 79 64 124 0 55 -18 80
-157 216 -103 101 -135 127 -163 131 -52 8 -91 -7 -135 -52 -54 -55 -65 -52
-65 15 0 72 -20 119 -62 145 -30 18 -50 20 -232 20 l-198 0 -39 -39z m425 -67
c12 -11 16 -36 16 -95 l0 -80 55 -25 c31 -13 60 -24 66 -24 6 0 36 25 68 55
32 30 67 55 77 55 22 0 254 -228 254 -250 0 -7 -25 -39 -55 -71 -62 -65 -65
-81 -32 -149 l22 -45 88 -5 c63 -4 90 -9 97 -20 5 -8 10 -87 10 -176 0 -195 2
-192 -115 -196 l-80 -3 -22 -45 c-12 -25 -22 -54 -23 -64 0 -11 25 -45 55 -77
30 -32 55 -63 55 -71 0 -18 -241 -258 -260 -258 -9 0 -40 25 -70 55 -32 32
-63 55 -75 54 -11 0 -40 -10 -65 -22 l-45 -22 -5 -81 c-3 -47 -11 -88 -19 -98
-11 -14 -37 -16 -173 -16 -91 0 -168 4 -179 10 -16 9 -19 22 -19 88 0 42 -4
82 -8 89 -9 14 -97 53 -119 53 -8 0 -40 -25 -72 -55 -32 -30 -64 -55 -72 -55
-22 0 -249 232 -249 254 0 11 25 45 55 77 30 32 55 62 55 67 0 5 -11 35 -25
66 l-25 56 -76 0 c-119 0 -114 -9 -114 193 0 121 4 177 12 185 7 7 42 12 88
12 87 0 95 6 124 78 19 51 16 59 -48 122 -25 24 -46 53 -46 65 0 27 228 255
255 255 12 0 45 -24 75 -55 30 -30 60 -55 67 -55 17 0 84 31 106 49 13 11 17
30 17 91 0 46 5 81 12 88 8 8 63 12 179 12 139 0 170 -3 183 -16z"/>
<path d="M3090 3187 c-117 -35 -215 -107 -281 -209 -52 -82 -72 -164 -67 -280
3 -83 8 -103 41 -171 156 -329 594 -373 811 -82 89 118 117 290 71 430 -41
128 -155 246 -282 296 -71 27 -224 36 -293 16z m218 -91 c284 -76 379 -419
176 -636 -179 -191 -502 -137 -615 105 -137 292 129 613 439 531z"/>
<path d="M1278 3539 c-57 -45 -122 -95 -145 -112 -46 -34 -62 -69 -43 -92 16
-20 275 -224 293 -230 7 -3 24 3 37 13 39 31 21 59 -100 152 -61 47 -109 88
-108 92 2 4 53 47 113 95 68 55 111 96 113 109 3 23 -21 54 -43 54 -7 0 -60
-36 -117 -81z"/>
<path d="M1946 3605 c-32 -32 -15 -57 99 -148 61 -48 111 -91 113 -95 1 -4
-47 -45 -108 -92 -120 -93 -139 -121 -100 -152 12 -10 26 -18 30 -18 10 0 281
212 299 234 8 9 11 25 7 38 -6 23 -272 236 -305 245 -10 2 -26 -3 -35 -12z"/>
<path d="M1146 2554 c-19 -18 -20 -28 -6 -55 10 -18 25 -19 378 -19 273 0 371
3 380 12 17 17 15 44 -4 62 -13 14 -61 16 -374 16 -313 0 -361 -2 -374 -16z"/>
<path d="M1142 2258 c-17 -17 -15 -42 6 -61 17 -15 57 -17 375 -17 310 0 358
2 371 16 19 18 21 45 4 62 -17 17 -739 17 -756 0z"/>
<path d="M1146 1964 c-19 -18 -21 -45 -4 -62 17 -17 1199 -17 1216 0 17 17 15
44 -4 62 -14 14 -82 16 -604 16 -522 0 -590 -2 -604 -16z"/>
</g>
</svg>
